<svg id="visual" viewBox="0 0 900 600" width="900" height="600" xmlns="http://www.w3.org/2000/svg" xmlns:xlink="http://www.w3.org/1999/xlink" version="1.1"><path d="M0 103L82 97L164 145L245 145L327 139L409 97L491 49L573 55L655 79L736 133L818 67L900 109L900 0L818 0L736 0L655 0L573 0L491 0L409 0L327 0L245 0L164 0L82 0L0 0Z" fill="#c9e376"></path><path d="M0 379L82 313L164 247L245 403L327 397L409 211L491 415L573 343L655 205L736 235L818 361L900 361L900 107L818 65L736 131L655 77L573 53L491 47L409 95L327 137L245 143L164 143L82 95L0 101Z" fill="#94a559"></path><path d="M0 523L82 427L164 499L245 535L327 523L409 439L491 535L573 433L655 427L736 451L818 475L900 511L900 359L818 359L736 233L655 203L573 341L491 413L409 209L327 395L245 401L164 245L82 311L0 377Z" fill="#626c3e"></path><path d="M0 601L82 601L164 601L245 601L327 601L409 601L491 601L573 601L655 601L736 601L818 601L900 601L900 509L818 473L736 449L655 425L573 431L491 533L409 437L327 521L245 533L164 497L82 425L0 521Z" fill="#343824"></path></svg>